<svg id="Filled_cutting_stroke_Ex" height="512" viewBox="0 0 512 512" width="512" xmlns="http://www.w3.org/2000/svg" data-name="Filled cutting stroke Ex"><g><g fill="#f29a49"><path d="m440 24h32a16 16 0 0 1 16 16 16 16 0 0 1 -16 16h-32a0 0 0 0 1 0 0v-32a0 0 0 0 1 0 0z"/><path d="m104 456h16a0 0 0 0 1 0 0v16a16 16 0 0 1 -16 16 16 16 0 0 1 -16-16 16 16 0 0 1 16-16z"/><path d="m408 456a16 16 0 0 1 16 16v16a0 0 0 0 1 0 0h-16a16 16 0 0 1 -16-16 16 16 0 0 1 16-16z" transform="matrix(-1 0 0 -1 816 944)"/></g><path d="m114 24h116a10 10 0 0 1 10 10v182a0 0 0 0 1 0 0h-136a0 0 0 0 1 0 0v-182a10 10 0 0 1 10-10z" fill="#79d8eb"/><path d="m104 152h136v32h-136z" fill="#fed672"/><g><path d="m428.3857 102.0345a19.9446 19.9446 0 0 0 -5.57-8.7532 9.9963 9.9963 0 0 0 -8.8157-5.2813h-92a9.9963 9.9963 0 0 0 -8.8162 5.2813 19.9446 19.9446 0 0 0 -5.57 8.7532l-35.6138 113.9655h40v56h112v-56h40z" fill="#fed672"/><path d="m377.2761 117.681-9.2761 2.319-9.2761-2.319a30 30 0 0 1 -22.7239-29.1043v-.5767h64v.5767a30 30 0 0 1 -22.7239 29.1043z" fill="#f29a49"/></g><g><path d="m272 432v-7.6039a20 20 0 0 1 16.0777-19.6116l23.9223-4.7845v-24h40v56z" fill="#fa5d3f"/><path d="m272 432h80a0 0 0 0 1 0 0v14a10 10 0 0 1 -10 10h-60a10 10 0 0 1 -10-10v-14a0 0 0 0 1 0 0z" fill="#fed672"/></g><g><path d="m154 296h76a10 10 0 0 1 10 10v118a0 0 0 0 1 0 0h-96a0 0 0 0 1 0 0v-118a10 10 0 0 1 10-10z" fill="#f29a49"/><path d="m144 392h96v32h-96z" fill="#fed672"/></g><path d="m24 24h32a16 16 0 0 1 16 16 16 16 0 0 1 -16 16h-32a0 0 0 0 1 0 0v-32a0 0 0 0 1 0 0z" fill="#f29a49" transform="matrix(-1 0 0 -1 96 80)"/><path d="m52 216-9.899 18.101-18.101 9.899 18.101 9.899 9.899 18.101 9.899-18.101 18.101-9.899-18.101-9.899z" fill="#fed672"/><path d="m460 360-9.899 18.101-18.101 9.899 18.101 9.899 9.899 18.101 9.899-18.101 18.101-9.899-18.101-9.899z" fill="#fed672"/><g><path d="m408 448v-168h16a8 8 0 0 0 8-8v-48h32a8 8 0 0 0 7.6357-10.3862l-35.6142-113.9654a28.0318 28.0318 0 0 0 -7.0047-11.5628 17.9982 17.9982 0 0 0 -15.0168-8.0856h-38v-13.1938l14.2471-17.8086a7.9977 7.9977 0 0 0 .681-.9976h41.0719v8a8 8 0 0 0 8 8h32a24 24 0 0 0 0-48h-32a8 8 0 0 0 -8 8v8h-42.7042a27.9962 27.9962 0 0 0 -50.5916 0h-90.8149a18.0257 18.0257 0 0 0 -17.8893-16h-116a18.0257 18.0257 0 0 0 -17.8893 16h-16.1107v-8a8 8 0 0 0 -8-8h-32a24 24 0 0 0 0 48h32a8 8 0 0 0 8-8v-8h16v16h16v-30a2.002 2.002 0 0 1 2-2h116a2.002 2.002 0 0 1 2 2v110h-120v-64h-16v136a8 8 0 0 0 8 8h24v16.2853a28.0429 28.0429 0 0 0 -24 27.7147v180a24 24 0 1 0 24 24v-8h256v8a24 24 0 1 0 24-24zm40-416h24a8 8 0 0 1 0 16h-24zm-384 16h-24a8 8 0 0 1 0-16h24zm326.7173 48a21.9692 21.9692 0 0 1 -15.3819 13.92l-7.3354 1.8339-7.3354-1.834a21.9692 21.9692 0 0 1 -15.3819-13.9199zm-278.7173 64h120v16h-120zm0 32h120v16h-120zm128 32a8 8 0 0 0 8-8v-168h104v-4a12.0008 12.0008 0 0 1 23.7417-2.4834l-13.9888 17.4858a8.0009 8.0009 0 0 0 -1.7529 4.9976v16h-38a17.9982 17.9982 0 0 0 -15.0168 8.0856 28.0318 28.0318 0 0 0 -7.0047 11.5628l-35.6142 113.9654a8 8 0 0 0 7.6357 10.3862h32v16h-160v-16zm-108 32h172v16a8 8 0 0 0 8 8h24v-16h-16v-46.8259l23.6626-78.8753-15.3252-4.5976-22.2895 74.2988h-23.1666l32.3687-103.5791a11.9486 11.9486 0 0 1 11.4536-8.4209h2.0222a37.9434 37.9434 0 0 0 28.0579 29.4424l9.2764 2.3188a7.9988 7.9988 0 0 0 3.88 0l9.2764-2.3188a37.9434 37.9434 0 0 0 28.0577-29.4424h2.0222a11.9486 11.9486 0 0 1 11.4536 8.4209l32.3687 103.5791h-23.1666l-22.2895-74.2988-15.3252 4.5976 23.6626 78.8753v46.8259h-64v16h40v16h-147.04a17.9969 17.9969 0 0 0 -14.96-8h-76a17.9969 17.9969 0 0 0 -14.96 8h-19.04v-28a12.0137 12.0137 0 0 1 12-12zm20 144h80v16h-80zm-32-88h16v112a8 8 0 0 0 8 8h96a8 8 0 0 0 8-8v-56h-16v16h-80v-78a2.002 2.002 0 0 1 2-2h76a2.002 2.002 0 0 1 2 2v46h16v-40h144v136h-32.1106a18.1234 18.1234 0 0 0 .1106-2v-62h8v-16h-72v16h8v9.4414l-17.4912 3.4986a28.0752 28.0752 0 0 0 -22.5088 27.456v21.604a18.1234 18.1234 0 0 0 .1106 2h-144.1106zm200 88v-16h24v40h-63.9937a12.035 12.035 0 0 1 9.64-11.3706l23.9223-4.7847a8 8 0 0 0 6.4314-7.8447zm-208 72a8 8 0 1 1 -8-8h8zm170-24a2.002 2.002 0 0 1 -2-2v-6h64v6a2.002 2.002 0 0 1 -2 2zm126 32a8.0092 8.0092 0 0 1 -8-8v-8h8a8 8 0 0 1 0 16z"/><path d="m376 232h24v16h-24z"/><path d="m168 320h16v48h-16z"/><path d="m88 244a8.0008 8.0008 0 0 0 -4.1611-7.019l-16.045-8.7749-8.7749-16.045a8 8 0 0 0 -14.038 0l-8.7749 16.045-16.045 8.7749a8 8 0 0 0 0 14.038l16.045 8.7749 8.7749 16.045a8 8 0 0 0 14.038 0l8.7749-16.045 16.045-8.7749a8.0008 8.0008 0 0 0 4.1611-7.019zm-29.94 2.88a8.0035 8.0035 0 0 0 -3.18 3.18l-2.88 5.2676-2.88-5.2671a8.0035 8.0035 0 0 0 -3.18-3.18l-5.2676-2.8805 5.2671-2.88a8.0035 8.0035 0 0 0 3.18-3.18l2.8805-5.2676 2.88 5.2671a8.0035 8.0035 0 0 0 3.18 3.18l5.2676 2.8805z"/><path d="m491.8389 380.981-16.045-8.7749-8.7749-16.045a8 8 0 0 0 -14.038 0l-8.7749 16.045-16.045 8.7749a8 8 0 0 0 0 14.038l16.045 8.7749 8.7749 16.045a8 8 0 0 0 14.038 0l8.7749-16.045 16.045-8.7749a8 8 0 0 0 0-14.038zm-25.7784 9.899a8.0035 8.0035 0 0 0 -3.18 3.18l-2.8805 5.2676-2.88-5.2671a8.0035 8.0035 0 0 0 -3.18-3.18l-5.2676-2.8805 5.2671-2.88a8.0035 8.0035 0 0 0 3.18-3.18l2.88-5.2671 2.88 5.2671a8.0035 8.0035 0 0 0 3.18 3.18l5.2671 2.88z"/></g></g></svg>