<svg id="Capa_1" enable-background="new 0 0 512 512" height="512" viewBox="0 0 512 512" width="512" xmlns="http://www.w3.org/2000/svg"><g id="XMLID_684_"><path id="XMLID_718_" d="m502.894 245.934c-1.126-1.245-28.083-30.834-71.713-60.666-58.329-39.884-118.905-60.965-175.181-60.965s-116.852 21.081-175.181 60.964c-43.63 29.833-70.587 59.421-71.713 60.666l-9.106 10.067 9.106 10.066c1.126 1.245 28.083 30.834 71.713 60.667 58.329 39.883 118.905 60.964 175.181 60.964s116.852-21.081 175.181-60.964c43.63-29.833 70.587-59.421 71.713-60.667l9.106-10.066zm-145.147 10.066c0 54.342-42.822 98.87-96.494 101.612-1.747.045-3.497.074-5.252.074-1.782 0-3.558-.031-5.331-.079-53.636-2.782-96.416-47.292-96.416-101.607 0-54.342 42.822-98.87 96.494-101.612 1.747-.045 3.497-.074 5.252-.074 1.782 0 3.558.032 5.331.079 53.636 2.782 96.416 47.292 96.416 101.607zm-316.439.006c17.342-16.735 56.096-50.81 106.348-74.894-14.754 21.28-23.414 47.09-23.414 74.888 0 27.784 8.653 53.58 23.393 74.853-18.756-8.956-35.434-19.054-49.267-28.478-25.999-17.71-45.931-35.612-57.06-46.369zm323.025 74.887c14.758-21.282 23.425-47.091 23.425-74.893 0-27.782-8.65-53.578-23.389-74.851 18.754 8.956 35.431 19.053 49.263 28.476 26 17.711 45.929 35.611 57.06 46.37-17.344 16.735-56.102 50.814-106.359 74.898z"/><path id="XMLID_750_" d="m195.628 256c0 33.289 27.082 60.372 60.372 60.372s60.372-27.083 60.372-60.372-27.082-60.372-60.372-60.372-60.372 27.083-60.372 60.372zm90.733 0c0 16.741-13.62 30.361-30.361 30.361s-30.361-13.62-30.361-30.361 13.62-30.361 30.361-30.361 30.361 13.62 30.361 30.361z"/></g></svg>